Coordinates
version=1
nRows=22
nColumns=24
inDegrees=yes

Units are S.I. units (second, meters, Newtons, ...)
Angles are in degrees.

endheader
time	pelvis_tilt	pelvis_list	pelvis_rotation	pelvis_tx	pelvis_ty	pelvis_tz	hip_flexion_r	hip_adduction_r	hip_rotation_r	knee_angle_r	ankle_angle_r	subtalar_angle_r	mtp_angle_r	hip_flexion_l	hip_adduction_l	hip_rotation_l	knee_angle_l	ankle_angle_l	subtalar_angle_l	mtp_angle_l	lumbar_extension	lumbar_bending	lumbar_rotation
      1.26750000	     -4.23582855	     -4.85556256	     -8.29256122	     -0.00569113	      0.96264725	      0.34438952	    -15.64906129	      6.30671293	      0.04903874	     -7.10130241	      7.10291463	      7.01980399	     12.78587791	     28.14085812	     -5.69910762	     -7.91207513	      3.09779484	      4.50984542	     -0.33564695	      1.60397412	     -0.06570584	      9.08577031	     13.00397745
      1.27166667	     -4.28361406	     -4.75937491	     -8.35613811	      0.00037084	      0.96194922	      0.34412543	    -15.81301352	      6.10590645	      0.03764727	     -7.33865542	      6.93463082	      6.99839391	     12.87538292	     28.18303123	     -5.60514106	     -7.99113569	      2.90656225	      4.39516374	     -0.50572178	      1.60841921	      0.07150648	      8.97116846	     13.00600578
      1.27583333	     -4.31666098	     -4.63743610	     -8.37418512	      0.00646719	      0.96125367	      0.34372480	    -15.94883849	      5.86670439	     -0.20700518	     -7.63006232	      6.62860931	      7.31513931	     16.68868020	     28.20729027	     -5.45641216	     -7.88193338	      2.67995313	      4.21056742	     -0.99088514	      2.00649073	      0.17762105	      8.84342409	     13.03849493
      1.28000000	     -4.38771214	     -4.52107114	     -8.44373744	      0.01258509	      0.96061718	      0.34345506	    -16.07826133	      5.65078658	     -0.15088929	     -7.87160295	      6.42230476	      7.22931279	     16.74329154	     28.25886064	     -5.34738508	     -7.82389894	      2.41081922	      3.92256523	     -1.50603535	      2.00948315	      0.33682977	      8.71839202	     13.12786410
      1.28416667	     -4.45004293	     -4.38243515	     -8.48448596	      0.01874545	      0.96000554	      0.34312118	    -16.19267979	      5.41138728	     -0.19066823	     -8.14899724	      6.16639513	      7.24141689	     16.84008128	     28.31222883	     -5.20088198	     -7.69913693	      2.07988614	      3.64447326	     -2.09865856	      2.02530777	      0.48805592	      8.56231275	     13.16722743
      1.28833333	     -4.51609194	     -4.23495473	     -8.52008899	      0.02494817	      0.95943173	      0.34277843	    -16.29060823	      5.16503741	     -0.24381782	     -8.44579051	      5.90715704	      7.25704392	     16.98201264	     28.37819169	     -5.04409862	     -7.57231987	      1.68930254	      3.33354206	     -2.73917202	      2.05419062	      0.65923243	      8.40164323	     13.20053619
      1.29250000	     -4.57465918	     -4.05091962	     -8.54502324	      0.03120478	      0.95890751	      0.34240236	    -16.37702217	      4.87910149	     -0.32616310	     -8.77205572	      5.67277588	      7.27055609	     17.31373091	     28.42735303	     -4.84117043	     -7.40042003	      1.28396334	      2.97580612	     -3.47980783	      2.13427328	      0.82432522	      8.18910475	     13.21382218
      1.29666667	     -4.68172579	     -3.89129097	     -8.56789007	      0.03746662	      0.95837393	      0.34204424	    -16.41944963	      4.63576596	     -0.34595610	     -9.07113956	      5.26312981	      7.20453260	     17.48978407	     28.56254835	     -4.67244116	     -7.28421233	      0.77908864	      2.59406435	     -4.08560409	      2.17524429	      1.05360440	      8.02315952	     13.24322101
      1.30083333	     -4.77702239	     -3.69665384	     -8.58086387	      0.04377096	      0.95789675	      0.34164415	    -16.44840262	      4.35335483	     -0.39688444	     -9.41379648	      4.91668073	      7.12818042	     17.72907018	     28.66822686	     -4.45570954	     -7.09779979	      0.28595691	      2.14861688	     -4.85881262	      2.23200453	      1.27124403	      7.81282907	     13.25960577
      1.30500000	     -4.87550067	     -3.49039546	     -8.58437872	      0.05011852	      0.95746099	      0.34122868	    -16.46263314	      4.06344538	     -0.45155049	     -9.76972323	      4.51430748	      7.03566736	     18.00237221	     28.78181216	     -4.22165946	     -6.92108182	     -0.23781521	      1.68852475	     -5.60623911	      2.29759257	      1.50646295	      7.58112680	     13.26335308
      1.30916667	     -4.99144444	     -3.27593080	     -8.57985603	      0.05647770	      0.95705684	      0.34077968	    -16.44259197	      3.77022206	     -0.49821552	    -10.14251178	      4.08503973	      6.91535617	     18.31582953	     28.92262127	     -3.97422782	     -6.73655953	     -0.79343468	      1.20510686	     -6.36368354	      2.37211257	      1.75511724	      7.35448835	     13.26470718
      1.31333333	     -5.07824320	     -3.04502166	     -8.58080846	      0.06285450	      0.95674073	      0.34031997	    -16.41586759	      3.45121068	     -0.56417517	    -10.58408142	      3.66887297	      6.77170262	     18.87255475	     29.01586338	     -3.70307854	     -6.52638455	     -1.33620062	      0.73029270	     -7.21808989	      2.50514161	      1.96942515	      7.09536754	     13.24498971
      1.31750000	     -5.14037216	     -2.77586360	     -8.52152413	      0.06932975	      0.95647535	      0.33978062	    -16.42661078	      3.09687635	     -0.75200093	    -10.96676329	      3.02285587	      6.69247154	     23.71892722	     29.10806417	     -3.36637571	     -6.37740719	     -1.92239634	      0.21761991	     -7.83755864	      3.65483989	      2.17524166	      6.78482149	     13.21868153
      1.32166667	     -5.31434830	     -2.54447110	     -8.52191507	      0.07571627	      0.95617489	      0.33933416	    -16.28112781	      2.80667223	     -0.69674911	    -11.43696380	      2.53207023	      6.36874712	     23.79109762	     29.32365712	     -3.10883907	     -6.24544041	     -2.54576905	     -0.28431367	     -8.48766429	      3.65215667	      2.50304559	      6.54501753	     13.22193627
      1.32583333	     -5.44389256	     -2.29375250	     -8.47430312	      0.08216084	      0.95596524	      0.33881744	    -16.17867136	      2.49920827	     -0.71941106	    -11.89823998	      1.92973148	      6.13492701	     23.89344041	     29.49058614	     -2.80131564	     -6.09399522	     -3.16448555	     -0.79488502	     -9.09667107	      3.65654173	      2.80075645	      6.25753162	     13.20835110
      1.33000000	     -5.56712923	     -2.02466699	     -8.43002809	      0.08860008	      0.95581542	      0.33825887	    -16.03934838	      2.16562406	     -0.76063903	    -12.43118284	      1.33653942	      5.88120887	     24.10318208	     29.63783838	     -2.46799603	     -5.90056216	     -3.76659795	     -1.29189429	     -9.78825746	      3.67390955	      3.06400214	      5.96976275	     13.17959164
      1.33416667	     -5.67923019	     -1.75163845	     -8.36725348	      0.09505300	      0.95572831	      0.33767941	    -15.89638809	      1.83383556	     -0.79894258	    -12.98071632	      0.66468379	      5.62561590	     24.37396282	     29.78121407	     -2.12242617	     -5.74551692	     -4.38702693	     -1.76285243	    -10.36930501	      3.69834316	      3.32563584	      5.66845323	     13.15387437
      1.33833333	     -5.80401461	     -1.46940981	     -8.28866873	      0.10153676	      0.95568505	      0.33710108	    -15.73308788	      1.50461077	     -0.81945210	    -13.52624845	     -0.06850769	      5.35899359	     24.57868937	     29.94898612	     -1.76736558	     -5.63369404	     -5.03836510	     -2.21355938	    -10.80861788	      3.71374648	      3.62158405	      5.34209319	     13.13658366
      1.34250000	     -5.92323559	     -1.18345733	     -8.23002848	      0.10795325	      0.95570020	      0.33647618	    -15.49935802	      1.15799295	     -0.84638290	    -14.21057164	     -0.79319570	      5.05545337	     24.99485157	     30.07911093	     -1.40298136	     -5.44069727	     -5.63021446	     -2.63331680	    -11.41832927	      3.74708441	      3.87689416	      5.03551154	     13.10582235
      1.34666667	     -5.95329566	     -0.84551736	     -8.15095250	      0.11447522	      0.95588521	      0.33584098	    -15.36953944	      0.74498873	     -0.91351134	    -14.84151239	     -1.65991599	      4.80631589	     28.91676273	     30.10255625	     -0.97126564	     -5.36049509	     -6.19654072	     -3.10051420	    -11.90438123	      4.04599196	      4.05712455	      4.62511254	     13.05379263
      1.35083333	     -6.10782530	     -0.58129258	     -8.04108876	      0.12087234	      0.95592762	      0.33518581	    -15.06156399	      0.45094460	     -0.92700410	    -15.57843402	     -2.47994011	      4.44548372	     28.97242978	     30.32122108	     -0.62431389	     -5.25345651	     -6.90328553	     -3.34821816	    -12.13825845	      4.04370852	      4.37116434	      4.32882182	     13.06022882
      1.35500000	     -6.21193351	     -0.29459069	     -7.96041908	      0.12726151	      0.95610639	      0.33453089	    -14.76195150	      0.11572730	     -0.90800173	    -16.37929545	     -3.33845047	      4.08417496	     29.11487934	     30.43636466	     -0.25194739	     -5.12572146	     -7.51630790	     -3.62763345	    -12.52026658	      4.03780782	      4.61404173	      4.00585105	     13.04311051
